<mxfile host="app.diagrams.net" agent="Mozilla/5.0 (Windows NT 10.0; Win64; x64) AppleWebKit/537.36 (KHTML, like Gecko) Chrome/129.0.0.0 Safari/537.36" version="24.7.16">
  <diagram name="Page-1" id="9f46799a-70d6-7492-0946-bef42562c5a5">
    <mxGraphModel dx="1050" dy="570" grid="1" gridSize="10" guides="1" tooltips="1" connect="1" arrows="1" fold="1" page="1" pageScale="1" pageWidth="1100" pageHeight="850" background="none" math="0" shadow="0">
      <root>
        <mxCell id="0" />
        <mxCell id="1" parent="0" />
        <mxCell id="IbyruuWoeqNro3mSS4yG-1" value="&lt;div style=&quot;text-align: justify;&quot;&gt;&lt;br&gt;&lt;/div&gt;" style="rounded=1;whiteSpace=wrap;html=1;fillColor=#dae8fc;strokeColor=#6c8ebf;" parent="1" vertex="1">
          <mxGeometry x="40" y="105" width="310" height="240" as="geometry" />
        </mxCell>
        <mxCell id="vm7lLeM9VB-H144guDU7-2" value="&lt;b&gt;&lt;font style=&quot;font-size: 14px;&quot;&gt;decrease_value_container&lt;/font&gt;&lt;/b&gt;" style="text;html=1;align=center;verticalAlign=middle;whiteSpace=wrap;rounded=0;" parent="1" vertex="1">
          <mxGeometry x="117.5" y="100" width="150" height="30" as="geometry" />
        </mxCell>
        <mxCell id="vm7lLeM9VB-H144guDU7-3" value="" style="image;sketch=0;aspect=fixed;html=1;points=[];align=center;fontSize=12;image=img/lib/mscae/Docker.svg;" parent="1" vertex="1">
          <mxGeometry x="290" y="285.5" width="50" height="41" as="geometry" />
        </mxCell>
        <mxCell id="vm7lLeM9VB-H144guDU7-5" value="&lt;div style=&quot;text-align: justify;&quot;&gt;&lt;br&gt;&lt;/div&gt;" style="rounded=1;whiteSpace=wrap;html=1;fillColor=#dae8fc;strokeColor=#6c8ebf;" parent="1" vertex="1">
          <mxGeometry x="372.5" y="105" width="310" height="240" as="geometry" />
        </mxCell>
        <mxCell id="vm7lLeM9VB-H144guDU7-6" value="&lt;b style=&quot;font-size: 14px;&quot;&gt;increase&lt;span style=&quot;background-color: initial;&quot;&gt;_value_container&lt;/span&gt;&lt;/b&gt;" style="text;html=1;align=center;verticalAlign=middle;whiteSpace=wrap;rounded=0;" parent="1" vertex="1">
          <mxGeometry x="445" y="108.25" width="150" height="30" as="geometry" />
        </mxCell>
        <mxCell id="vm7lLeM9VB-H144guDU7-7" value="" style="image;sketch=0;aspect=fixed;html=1;points=[];align=center;fontSize=12;image=img/lib/mscae/Docker.svg;" parent="1" vertex="1">
          <mxGeometry x="612.5" y="283" width="50" height="41" as="geometry" />
        </mxCell>
        <mxCell id="vm7lLeM9VB-H144guDU7-8" value="&lt;div style=&quot;text-align: justify;&quot;&gt;&lt;br&gt;&lt;/div&gt;" style="rounded=1;whiteSpace=wrap;html=1;fillColor=#dae8fc;strokeColor=#6c8ebf;" parent="1" vertex="1">
          <mxGeometry x="712.5" y="105" width="277.5" height="245" as="geometry" />
        </mxCell>
        <mxCell id="vm7lLeM9VB-H144guDU7-9" value="&lt;b style=&quot;font-size: 14px;&quot;&gt;print&lt;span style=&quot;background-color: initial;&quot;&gt;_value_container&lt;/span&gt;&lt;/b&gt;" style="text;html=1;align=center;verticalAlign=middle;whiteSpace=wrap;rounded=0;" parent="1" vertex="1">
          <mxGeometry x="747.5" y="108.25" width="150" height="30" as="geometry" />
        </mxCell>
        <mxCell id="vm7lLeM9VB-H144guDU7-10" value="" style="image;sketch=0;aspect=fixed;html=1;points=[];align=center;fontSize=12;image=img/lib/mscae/Docker.svg;" parent="1" vertex="1">
          <mxGeometry x="911.25" y="300" width="50" height="41" as="geometry" />
        </mxCell>
        <mxCell id="vm7lLeM9VB-H144guDU7-12" value="" style="rounded=1;whiteSpace=wrap;html=1;fillColor=#dae8fc;strokeColor=#6c8ebf;" parent="1" vertex="1">
          <mxGeometry x="350" y="405" width="240" height="160" as="geometry" />
        </mxCell>
        <mxCell id="vm7lLeM9VB-H144guDU7-11" value="" style="shadow=0;dashed=0;html=1;labelPosition=center;verticalLabelPosition=bottom;verticalAlign=top;align=center;outlineConnect=0;shape=mxgraph.veeam.3d.datastore_volume;" parent="1" vertex="1">
          <mxGeometry x="530" y="497" width="44" height="60" as="geometry" />
        </mxCell>
        <mxCell id="vm7lLeM9VB-H144guDU7-13" value="&lt;b&gt;my_volume&lt;/b&gt;" style="text;html=1;align=center;verticalAlign=middle;whiteSpace=wrap;rounded=0;" parent="1" vertex="1">
          <mxGeometry x="417.5" y="414" width="105" height="29" as="geometry" />
        </mxCell>
        <mxCell id="vm7lLeM9VB-H144guDU7-14" value="" style="shape=note;whiteSpace=wrap;html=1;backgroundOutline=1;darkOpacity=0.05;" parent="1" vertex="1">
          <mxGeometry x="425" y="450" width="60" height="75" as="geometry" />
        </mxCell>
        <mxCell id="vm7lLeM9VB-H144guDU7-15" value="value.txt&lt;div&gt;&lt;br&gt;&lt;/div&gt;" style="text;html=1;align=center;verticalAlign=middle;whiteSpace=wrap;rounded=0;" parent="1" vertex="1">
          <mxGeometry x="425" y="486" width="60" height="30" as="geometry" />
        </mxCell>
        <mxCell id="vm7lLeM9VB-H144guDU7-18" value="" style="endArrow=classic;startArrow=classic;html=1;rounded=0;entryX=0.5;entryY=1;entryDx=0;entryDy=0;exitX=0;exitY=0.75;exitDx=0;exitDy=0;" parent="1" source="vm7lLeM9VB-H144guDU7-15" target="iwmk5uise-B1fvSoAlJf-13" edge="1">
          <mxGeometry width="50" height="50" relative="1" as="geometry">
            <mxPoint x="412.5" y="375" as="sourcePoint" />
            <mxPoint x="552.5" y="313" as="targetPoint" />
            <Array as="points">
              <mxPoint x="132.5" y="325" />
            </Array>
          </mxGeometry>
        </mxCell>
        <mxCell id="vm7lLeM9VB-H144guDU7-19" value="" style="endArrow=classic;html=1;rounded=0;exitX=1;exitY=0;exitDx=0;exitDy=0;entryX=0;entryY=0.5;entryDx=0;entryDy=0;" parent="1" source="vm7lLeM9VB-H144guDU7-15" target="iwmk5uise-B1fvSoAlJf-34" edge="1">
          <mxGeometry width="50" height="50" relative="1" as="geometry">
            <mxPoint x="682.5" y="565" as="sourcePoint" />
            <mxPoint x="790" y="400" as="targetPoint" />
            <Array as="points">
              <mxPoint x="692.5" y="355" />
            </Array>
          </mxGeometry>
        </mxCell>
        <mxCell id="iwmk5uise-B1fvSoAlJf-7" value="" style="image;sketch=0;aspect=fixed;html=1;points=[];align=center;fontSize=12;image=img/lib/mscae/Docker.svg;" vertex="1" parent="1">
          <mxGeometry x="360" y="516" width="50" height="41" as="geometry" />
        </mxCell>
        <mxCell id="iwmk5uise-B1fvSoAlJf-10" value="main.py" style="shape=note;whiteSpace=wrap;html=1;backgroundOutline=1;darkOpacity=0.05;fillColor=#FFFFCC;" vertex="1" parent="1">
          <mxGeometry x="220" y="147" width="100" height="95" as="geometry" />
        </mxCell>
        <mxCell id="iwmk5uise-B1fvSoAlJf-11" value="" style="outlineConnect=0;dashed=0;verticalLabelPosition=bottom;verticalAlign=top;align=center;html=1;shape=mxgraph.aws3.android;fillColor=#FFD44F;gradientColor=none;" vertex="1" parent="1">
          <mxGeometry x="220" y="148" width="27.5" height="30" as="geometry" />
        </mxCell>
        <mxCell id="iwmk5uise-B1fvSoAlJf-13" value="" style="rounded=1;whiteSpace=wrap;html=1;labelBackgroundColor=#CCFFFF;fontColor=none;noLabel=1;fillColor=#CCFFFF;" vertex="1" parent="1">
          <mxGeometry x="57.5" y="161" width="105" height="109" as="geometry" />
        </mxCell>
        <mxCell id="iwmk5uise-B1fvSoAlJf-14" value="Data" style="text;html=1;align=center;verticalAlign=middle;whiteSpace=wrap;rounded=0;" vertex="1" parent="1">
          <mxGeometry x="78.75" y="161" width="60" height="30" as="geometry" />
        </mxCell>
        <mxCell id="iwmk5uise-B1fvSoAlJf-16" value="" style="endArrow=classic;startArrow=classic;html=1;rounded=0;exitX=0;exitY=0;exitDx=0;exitDy=0;exitPerimeter=0;entryX=0.5;entryY=1;entryDx=0;entryDy=0;" edge="1" parent="1" source="vm7lLeM9VB-H144guDU7-14" target="iwmk5uise-B1fvSoAlJf-21">
          <mxGeometry width="50" height="50" relative="1" as="geometry">
            <mxPoint x="572.5" y="445" as="sourcePoint" />
            <mxPoint x="532.5" y="295" as="targetPoint" />
          </mxGeometry>
        </mxCell>
        <mxCell id="iwmk5uise-B1fvSoAlJf-18" value="" style="endArrow=classic;startArrow=classic;html=1;rounded=0;entryX=1;entryY=0.5;entryDx=0;entryDy=0;exitX=0;exitY=0.5;exitDx=0;exitDy=0;exitPerimeter=0;" edge="1" parent="1" source="iwmk5uise-B1fvSoAlJf-10" target="iwmk5uise-B1fvSoAlJf-13">
          <mxGeometry width="50" height="50" relative="1" as="geometry">
            <mxPoint x="559.5" y="430" as="sourcePoint" />
            <mxPoint x="257.5" y="146" as="targetPoint" />
          </mxGeometry>
        </mxCell>
        <mxCell id="iwmk5uise-B1fvSoAlJf-19" value="main.py" style="shape=note;whiteSpace=wrap;html=1;backgroundOutline=1;darkOpacity=0.05;fillColor=#FFFFCC;" vertex="1" parent="1">
          <mxGeometry x="542.5" y="152" width="100" height="95" as="geometry" />
        </mxCell>
        <mxCell id="iwmk5uise-B1fvSoAlJf-20" value="" style="outlineConnect=0;dashed=0;verticalLabelPosition=bottom;verticalAlign=top;align=center;html=1;shape=mxgraph.aws3.android;fillColor=#FFD44F;gradientColor=none;" vertex="1" parent="1">
          <mxGeometry x="542.5" y="153" width="27.5" height="30" as="geometry" />
        </mxCell>
        <mxCell id="iwmk5uise-B1fvSoAlJf-21" value="" style="rounded=1;whiteSpace=wrap;html=1;fillColor=#CCFFFF;" vertex="1" parent="1">
          <mxGeometry x="392.5" y="158.5" width="105" height="110" as="geometry" />
        </mxCell>
        <mxCell id="iwmk5uise-B1fvSoAlJf-22" value="Data" style="text;html=1;align=center;verticalAlign=middle;whiteSpace=wrap;rounded=0;" vertex="1" parent="1">
          <mxGeometry x="410" y="169.5" width="57.5" height="29" as="geometry" />
        </mxCell>
        <mxCell id="iwmk5uise-B1fvSoAlJf-23" value="" style="endArrow=classic;startArrow=classic;html=1;rounded=0;exitX=1;exitY=0.5;exitDx=0;exitDy=0;entryX=0;entryY=0.5;entryDx=0;entryDy=0;entryPerimeter=0;" edge="1" parent="1" source="iwmk5uise-B1fvSoAlJf-21" target="iwmk5uise-B1fvSoAlJf-19">
          <mxGeometry width="50" height="50" relative="1" as="geometry">
            <mxPoint x="555" y="194" as="sourcePoint" />
            <mxPoint x="472.5" y="211" as="targetPoint" />
          </mxGeometry>
        </mxCell>
        <mxCell id="iwmk5uise-B1fvSoAlJf-24" value="main.py" style="shape=note;whiteSpace=wrap;html=1;backgroundOutline=1;darkOpacity=0.05;fillColor=#FFFFCC;" vertex="1" parent="1">
          <mxGeometry x="890" y="152" width="92.5" height="104.5" as="geometry" />
        </mxCell>
        <mxCell id="iwmk5uise-B1fvSoAlJf-25" value="" style="outlineConnect=0;dashed=0;verticalLabelPosition=bottom;verticalAlign=top;align=center;html=1;shape=mxgraph.aws3.android;fillColor=#FFD44F;gradientColor=none;" vertex="1" parent="1">
          <mxGeometry x="897.5" y="159" width="27.5" height="32" as="geometry" />
        </mxCell>
        <mxCell id="iwmk5uise-B1fvSoAlJf-26" value="" style="shape=note;whiteSpace=wrap;html=1;backgroundOutline=1;darkOpacity=0.05;" vertex="1" parent="1">
          <mxGeometry x="77.5" y="200" width="60" height="51" as="geometry" />
        </mxCell>
        <mxCell id="iwmk5uise-B1fvSoAlJf-27" value="value.txt&lt;div&gt;&lt;br&gt;&lt;/div&gt;" style="text;html=1;align=center;verticalAlign=middle;whiteSpace=wrap;rounded=0;" vertex="1" parent="1">
          <mxGeometry x="77.5" y="230" width="60" height="30" as="geometry" />
        </mxCell>
        <mxCell id="iwmk5uise-B1fvSoAlJf-28" value="" style="shape=note;whiteSpace=wrap;html=1;backgroundOutline=1;darkOpacity=0.05;" vertex="1" parent="1">
          <mxGeometry x="415" y="204.5" width="60" height="51" as="geometry" />
        </mxCell>
        <mxCell id="iwmk5uise-B1fvSoAlJf-29" value="value.txt&lt;div&gt;&lt;br&gt;&lt;/div&gt;" style="text;html=1;align=center;verticalAlign=middle;whiteSpace=wrap;rounded=0;" vertex="1" parent="1">
          <mxGeometry x="415" y="234.5" width="60" height="30" as="geometry" />
        </mxCell>
        <mxCell id="iwmk5uise-B1fvSoAlJf-34" value="" style="rounded=1;whiteSpace=wrap;html=1;fillColor=#CCFFFF;" vertex="1" parent="1">
          <mxGeometry x="747.5" y="160.5" width="105" height="110" as="geometry" />
        </mxCell>
        <mxCell id="iwmk5uise-B1fvSoAlJf-35" value="Data" style="text;html=1;align=center;verticalAlign=middle;whiteSpace=wrap;rounded=0;" vertex="1" parent="1">
          <mxGeometry x="765" y="171.5" width="57.5" height="29" as="geometry" />
        </mxCell>
        <mxCell id="iwmk5uise-B1fvSoAlJf-36" value="" style="shape=note;whiteSpace=wrap;html=1;backgroundOutline=1;darkOpacity=0.05;" vertex="1" parent="1">
          <mxGeometry x="770" y="206.5" width="60" height="51" as="geometry" />
        </mxCell>
        <mxCell id="iwmk5uise-B1fvSoAlJf-37" value="value.txt&lt;div&gt;&lt;br&gt;&lt;/div&gt;" style="text;html=1;align=center;verticalAlign=middle;whiteSpace=wrap;rounded=0;" vertex="1" parent="1">
          <mxGeometry x="770" y="236.5" width="60" height="30" as="geometry" />
        </mxCell>
        <mxCell id="iwmk5uise-B1fvSoAlJf-38" value="" style="endArrow=classic;html=1;rounded=0;exitX=1;exitY=0.5;exitDx=0;exitDy=0;entryX=0;entryY=0.5;entryDx=0;entryDy=0;entryPerimeter=0;" edge="1" parent="1" source="iwmk5uise-B1fvSoAlJf-34" target="iwmk5uise-B1fvSoAlJf-24">
          <mxGeometry width="50" height="50" relative="1" as="geometry">
            <mxPoint x="480" y="390" as="sourcePoint" />
            <mxPoint x="840" y="420" as="targetPoint" />
          </mxGeometry>
        </mxCell>
      </root>
    </mxGraphModel>
  </diagram>
</mxfile>
